<svg width="18" height="20" viewBox="0 0 18 20" fill="none" xmlns="http://www.w3.org/2000/svg">
<path d="M1.90484 18.5424H6.47589V12.2566C6.47589 11.9735 6.57205 11.7362 6.76437 11.5447C6.95586 11.3524 7.19316 11.2562 7.47627 11.2562H11.1906C11.4737 11.2562 11.7114 11.3524 11.9037 11.5447C12.0952 11.7362 12.1909 11.9735 12.1909 12.2566V18.5424H16.762V7.7809C16.762 7.65379 16.7343 7.53823 16.679 7.43423C16.6237 7.33023 16.5482 7.23944 16.4525 7.16185L9.78656 2.13766C9.65945 2.02706 9.5084 1.97176 9.33342 1.97176C9.15843 1.97176 9.0078 2.02706 8.88151 2.13766L2.21437 7.16185C2.11945 7.24109 2.04392 7.33188 1.9878 7.43423C1.93167 7.53658 1.90402 7.65214 1.90484 7.7809V18.5424ZM0.666748 18.5424V7.7809C0.666748 7.46395 0.737732 7.16392 0.8797 6.8808C1.02167 6.59769 1.21729 6.36452 1.46656 6.18128L8.1337 1.13233C8.48284 0.865724 8.88151 0.732422 9.3297 0.732422C9.77789 0.732422 10.179 0.865724 10.5331 1.13233L17.2003 6.18004C17.4504 6.36328 17.646 6.59687 17.7871 6.8808C17.9291 7.16392 18.0001 7.46395 18.0001 7.7809V18.5424C18.0001 18.8742 17.8767 19.1635 17.6299 19.4103C17.3831 19.6571 17.0938 19.7805 16.762 19.7805H11.9532C11.6693 19.7805 11.4316 19.6848 11.2401 19.4933C11.0486 19.301 10.9528 19.0632 10.9528 18.7801V12.4956H7.71399V18.7801C7.71399 19.0641 7.61824 19.3018 7.42675 19.4933C7.23526 19.6848 6.99795 19.7805 6.71484 19.7805H1.90484C1.57303 19.7805 1.28373 19.6571 1.03694 19.4103C0.790145 19.1635 0.666748 18.8742 0.666748 18.5424Z" fill="black"/>
</svg>
