<svg width="16" height="19" viewBox="0 0 16 19" fill="none" xmlns="http://www.w3.org/2000/svg">
<path d="M12.4687 4.59375C12.4687 5.81209 11.9848 6.98053 11.1233 7.84202C10.2618 8.70352 9.09334 9.1875 7.875 9.1875C6.65666 9.1875 5.48822 8.70352 4.62673 7.84202C3.76523 6.98053 3.28125 5.81209 3.28125 4.59375C3.28125 3.37541 3.76523 2.20697 4.62673 1.34548C5.48822 0.483983 6.65666 0 7.875 0C9.09334 0 10.2618 0.483983 11.1233 1.34548C11.9848 2.20697 12.4687 3.37541 12.4687 4.59375ZM11.1562 4.59375C11.1562 3.72351 10.8105 2.88891 10.1952 2.27356C9.57984 1.6582 8.74524 1.3125 7.875 1.3125C7.00476 1.3125 6.17016 1.6582 5.55481 2.27356C4.93945 2.88891 4.59375 3.72351 4.59375 4.59375C4.59375 5.46399 4.93945 6.29859 5.55481 6.91394C6.17016 7.5293 7.00476 7.875 7.875 7.875C8.74524 7.875 9.57984 7.5293 10.1952 6.91394C10.8105 6.29859 11.1562 5.46399 11.1562 4.59375ZM2.29688 10.5C1.68771 10.5 1.10349 10.742 0.672739 11.1727C0.241992 11.6035 0 12.1877 0 12.7969V13.125C0 14.6954 0.999469 16.0237 2.41828 16.9267C3.84497 17.8349 5.77631 18.375 7.875 18.375C9.97369 18.375 11.9044 17.8349 13.3317 16.9267C14.7505 16.0237 15.75 14.6954 15.75 13.125V12.7969C15.75 12.1877 15.508 11.6035 15.0773 11.1727C14.6465 10.742 14.0623 10.5 13.4531 10.5H2.29688ZM1.3125 12.7969C1.3125 12.5358 1.41621 12.2854 1.60082 12.1008C1.78542 11.9162 2.0358 11.8125 2.29688 11.8125H13.4531C13.7142 11.8125 13.9646 11.9162 14.1492 12.1008C14.3338 12.2854 14.4375 12.5358 14.4375 12.7969V13.125C14.4375 14.0917 13.8206 15.0603 12.6269 15.8196C11.4411 16.5742 9.76303 17.0625 7.875 17.0625C5.98697 17.0625 4.30894 16.5742 3.12309 15.8196C1.92872 15.0609 1.3125 14.091 1.3125 13.125V12.7969Z" fill="black"/>
</svg>
