<svg width="20" height="17" viewBox="0 0 20 17" fill="none" xmlns="http://www.w3.org/2000/svg">
<path fill-rule="evenodd" clip-rule="evenodd" d="M7.48456 0.614369C8.03618 1.07296 8.46222 1.74882 8.68082 2.52087C8.90035 3.29375 8.88547 4.0741 8.65477 4.72176C8.42687 5.35782 7.94595 5.95904 7.16363 6.15724C6.37202 6.35792 5.61947 6.06021 5.07343 5.60577C4.52181 5.14718 4.09577 4.47215 3.87717 3.7001C3.65764 2.92721 3.67252 2.14687 3.90322 1.4992C4.13112 0.862322 4.61204 0.261927 5.39436 0.0637305C6.18597 -0.136954 6.93852 0.160756 7.48456 0.615198M6.53294 1.52574C6.20365 1.25208 5.9376 1.21974 5.77575 1.26037C5.60552 1.30432 5.37854 1.47018 5.2325 1.87818C5.0911 2.2754 5.06506 2.81692 5.22971 3.39575C5.39436 3.97625 5.7004 4.42737 6.02504 4.69772C6.35434 4.97138 6.62038 5.00289 6.78224 4.96142C6.95247 4.9183 7.17945 4.75245 7.32549 4.34444C7.46688 3.94722 7.49293 3.40571 7.32828 2.82687C7.16363 2.24638 6.85759 1.79608 6.53294 1.52574ZM8.93012 6.79163C9.6241 6.58307 10.3756 6.58307 11.0696 6.79163C11.8389 7.023 12.3989 7.59769 12.918 8.33159C13.4389 9.06965 14.0063 10.0971 14.7263 11.4057L15.57 12.9366C15.7561 13.2724 15.903 13.5403 16.0091 13.7534C16.1142 13.9632 16.2044 14.168 16.2416 14.3671C16.4984 15.7047 15.3886 16.9602 13.8575 17C13.6156 16.9993 13.3748 16.9706 13.1412 16.9146C12.816 16.844 12.4922 16.7683 12.1701 16.6874L12.1552 16.684C11.8598 16.6067 11.5617 16.5381 11.2612 16.4784C10.4289 16.3274 9.57088 16.3274 8.73849 16.4784C8.43805 16.5381 8.13991 16.6067 7.84455 16.684L7.82967 16.6874C7.43061 16.7844 7.11154 16.8632 6.85945 16.9146C6.62556 16.9707 6.38446 16.9994 6.14225 17C4.61111 16.9602 3.50136 15.7047 3.7581 14.3671C3.79531 14.168 3.88647 13.9632 3.99066 13.7534C4.0967 13.5403 4.24461 13.2724 4.42972 12.9366L5.27343 11.4057C5.99435 10.0971 6.55992 9.06882 7.08177 8.33159C7.60084 7.59769 8.1599 7.023 8.93012 6.79163ZM10.624 7.97003C10.2197 7.84868 9.7819 7.84868 9.37755 7.97003C9.0864 8.0571 8.74687 8.31169 8.26315 8.99501C7.78595 9.67004 7.252 10.637 6.5069 11.9887L5.68924 13.4731C5.49668 13.823 5.36087 14.0702 5.26599 14.2592C5.20991 14.3608 5.16565 14.4672 5.13389 14.5769C5.01576 15.1938 5.52831 15.7395 6.18318 15.7569C6.22039 15.7577 6.31341 15.7511 6.54411 15.703C6.85619 15.6348 7.16693 15.5618 7.47619 15.4841L7.50409 15.4775C7.94781 15.3688 8.20455 15.3058 8.46222 15.2594C9.47725 15.0754 10.5234 15.0754 11.5385 15.2594C11.7971 15.3058 12.0538 15.3688 12.4984 15.4775L12.5254 15.4841C12.9422 15.5861 13.2352 15.6574 13.4575 15.703C13.6873 15.7511 13.7821 15.7577 13.8184 15.7569C14.4733 15.7403 14.9858 15.193 14.8677 14.576C14.8359 14.4667 14.7916 14.3606 14.7356 14.2592C14.5995 13.9951 14.4584 13.733 14.3124 13.4731L13.4947 11.9887C12.7505 10.637 12.2157 9.67004 11.7384 8.99501C11.2547 8.31169 10.9152 8.05793 10.624 7.97003ZM11.3189 2.52087C11.5375 1.74882 11.9636 1.07296 12.5152 0.615198C13.0612 0.160756 13.8138 -0.136954 14.6054 0.0637305C15.3877 0.261927 15.8686 0.862322 16.0965 1.4992C16.3281 2.14604 16.3421 2.92721 16.1226 3.7001C15.904 4.47215 15.4779 5.14718 14.9263 5.60577C14.3803 6.06021 13.6277 6.35792 12.8361 6.15724C12.0538 5.95821 11.5729 5.35782 11.345 4.72176C11.1143 4.0741 11.0994 3.29375 11.3189 2.52087ZM14.224 1.26037C14.0621 1.21891 13.7961 1.25042 13.4668 1.52491C13.1431 1.79443 12.8361 2.24555 12.6715 2.82521C12.5068 3.40488 12.5319 3.94639 12.6752 4.34362C12.8203 4.75162 13.0473 4.91747 13.2184 4.9606C13.3794 5.00206 13.6454 4.97055 13.9747 4.69606C14.2993 4.42654 14.6054 3.97542 14.77 3.39575C14.9347 2.81609 14.9096 2.27458 14.7672 1.87735C14.6212 1.46935 14.3942 1.3035 14.224 1.26037ZM3.20462 6.59592C2.68091 6.27251 2.00278 6.10168 1.33488 6.31231C0.664193 6.52378 0.263269 7.03876 0.0976897 7.58774C-0.0688194 8.13837 -0.0213784 8.7736 0.231641 9.37897C0.485591 9.98434 0.919073 10.4943 1.44651 10.8202C1.97022 11.1437 2.64835 11.3137 3.31625 11.1039C3.98693 10.8924 4.38786 10.3774 4.55344 9.82843C4.71995 9.2778 4.67344 8.64257 4.41949 8.0372C4.16554 7.43183 3.73205 6.92183 3.20462 6.59592ZM2.41114 7.61925C2.67905 7.7851 2.94695 8.07784 3.11253 8.47174C3.27718 8.86565 3.28741 9.23633 3.20555 9.50502C3.12462 9.77536 2.97579 9.89146 2.85114 9.93127C2.72277 9.9719 2.51161 9.96444 2.23998 9.79692C1.97208 9.63107 1.70418 9.3375 1.5386 8.94443C1.37395 8.55052 1.36372 8.17984 1.44558 7.91115C1.52651 7.64081 1.67534 7.52471 1.79999 7.48491C1.92836 7.44427 2.13952 7.45174 2.41114 7.61925ZM18.6649 6.31148C17.997 6.10168 17.3188 6.27334 16.7951 6.59592C16.2677 6.92183 15.8342 7.431 15.5803 8.0372C15.3272 8.64257 15.2807 9.2778 15.4463 9.82843C15.6119 10.3774 16.0128 10.8924 16.6835 11.1039C17.3514 11.3145 18.0295 11.1428 18.5532 10.8202C19.0807 10.4943 19.5141 9.98517 19.7681 9.37897C20.022 8.7736 20.0686 8.13837 19.902 7.58774C19.7365 7.03876 19.3355 6.52378 18.6649 6.31231M16.8881 8.47257C17.0528 8.07867 17.3207 7.78593 17.5886 7.62008C17.8602 7.45256 18.0723 7.44593 18.1997 7.48574C18.3244 7.52471 18.4732 7.64164 18.5551 7.91198C18.636 8.18067 18.6258 8.55052 18.4611 8.94526C18.2956 9.33833 18.0277 9.6319 17.7598 9.79775C17.4881 9.96527 17.277 9.9719 17.1486 9.93209C17.024 9.89312 16.8751 9.77619 16.7933 9.50585C16.7123 9.23716 16.7226 8.86731 16.8872 8.47257" fill="#135DB2"/>
<path d="M9.15945 7.14716C9.5581 6.58615 10.3911 6.58615 10.7898 7.14716L15.7806 14.1708C16.2511 14.8329 15.7777 15.75 14.9655 15.75H4.98375C4.1715 15.75 3.6981 14.8329 4.16859 14.1708L9.15945 7.14716Z" fill="#135DB2"/>
<ellipse cx="5.86995" cy="3.1242" rx="2" ry="2.5" transform="rotate(-26.0764 5.86995 3.1242)" fill="#135DB2"/>
<ellipse cx="2" cy="2.5" rx="2" ry="2.5" transform="matrix(-0.898209 -0.439569 -0.439569 0.898209 16.7656 1.75781)" fill="#135DB2"/>
<ellipse cx="2.38273" cy="8.80787" rx="1.84002" ry="1.66073" transform="rotate(-26.0764 2.38273 8.80787)" fill="#135DB2"/>
<ellipse cx="17.3573" cy="8.30005" rx="1.84002" ry="1.66073" transform="rotate(-26.0764 17.3573 8.30005)" fill="#135DB2"/>
</svg>
