<svg width="24" height="24" viewBox="0 0 24 24" fill="none" xmlns="http://www.w3.org/2000/svg">
<path d="M2 2L2.85714 5M2.85714 5L6.07849 16.2747C6.20115 16.704 6.59354 17 7.04002 17H21C21.5523 17 22 16.5523 22 16V8C22 7.20435 21.699 6.44129 21.1632 5.87868C20.6273 5.31607 19.9006 5 19.1429 5H2.85714ZM19.1429 23C18.764 23 18.4006 22.842 18.1327 22.5607C17.8648 22.2794 17.7143 21.8978 17.7143 21.5C17.7143 21.1022 17.8648 20.7206 18.1327 20.4393C18.4006 20.158 18.764 20 19.1429 20C19.5217 20 19.8851 20.158 20.153 20.4393C20.4209 20.7206 20.5714 21.1022 20.5714 21.5C20.5714 21.8978 20.4209 22.2794 20.153 22.5607C19.8851 22.842 19.5217 23 19.1429 23ZM7.71429 21.5C7.71429 21.1022 7.8648 20.7206 8.13271 20.4393C8.40061 20.158 8.76398 20 9.1429 20C9.5217 20 9.8851 20.158 10.153 20.4393C10.4209 20.7206 10.5714 21.1022 10.5714 21.5C10.5714 21.8978 10.4209 22.2794 10.153 22.5607C9.8851 22.842 9.5217 23 9.1429 23C8.76398 23 8.40061 22.842 8.13271 22.5607C7.8648 22.2794 7.71429 21.8978 7.71429 21.5Z" stroke="#070707" stroke-width="1.51"/>
</svg>
