<svg width="60" height="60" viewBox="0 0 60 60" fill="none" xmlns="http://www.w3.org/2000/svg">
<g filter="url(#filter0_d_3979_2602)">
<rect x="-4" y="27.6006" width="47.5187" height="47.5187" rx="18" transform="rotate(-45 -4 27.6006)" fill="#4A9BF6"/>
</g>
<path d="M37.0512 24.496L36.827 25.0117C36.792 25.0957 36.7329 25.1674 36.6572 25.2179C36.5815 25.2684 36.4925 25.2953 36.4015 25.2953C36.3105 25.2953 36.2216 25.2684 36.1458 25.2179C36.0701 25.1674 36.011 25.0957 35.976 25.0117L35.7518 24.496C35.3577 23.5836 34.636 22.8521 33.729 22.4458L33.0374 22.1369C32.9535 22.0983 32.8824 22.0365 32.8326 21.9587C32.7828 21.8809 32.7563 21.7905 32.7563 21.6982C32.7563 21.6058 32.7828 21.5154 32.8326 21.4376C32.8824 21.3599 32.9535 21.298 33.0374 21.2594L33.6907 20.9687C34.6205 20.5509 35.3546 19.7923 35.7418 18.8493L35.9723 18.2926C36.0062 18.2063 36.0653 18.1323 36.1418 18.0801C36.2184 18.0279 36.3089 18 36.4015 18C36.4942 18 36.5847 18.0279 36.6612 18.0801C36.7378 18.1323 36.7968 18.2063 36.8307 18.2926L37.0612 18.8484C37.448 19.7916 38.1818 20.5504 39.1114 20.9687L39.7657 21.2603C39.8493 21.299 39.9201 21.3609 39.9698 21.4385C40.0194 21.5162 40.0458 21.6064 40.0458 21.6986C40.0458 21.7908 40.0194 21.881 39.9698 21.9587C39.9201 22.0364 39.8493 22.0982 39.7657 22.1369L39.0731 22.4449C38.1663 22.8516 37.4449 23.5834 37.0512 24.496ZM27.2896 19.8234H30.9343V21.6458H27.2896C25.8396 21.6458 24.449 22.2218 23.4237 23.2471C22.3984 24.2724 21.8224 25.663 21.8224 27.1129C21.8224 30.4024 24.0658 32.5491 29.112 34.8399V32.5801H30.9343C32.3843 32.5801 33.7749 32.0041 34.8002 30.9788C35.8255 29.9535 36.4015 28.5629 36.4015 27.1129H38.2239C38.2239 29.0463 37.4559 30.9004 36.0888 32.2674C34.7218 33.6345 32.8677 34.4025 30.9343 34.4025V37.5917C26.3784 35.7693 20 33.0357 20 27.1129C20 25.1796 20.768 23.3255 22.1351 21.9584C23.5021 20.5914 25.3563 19.8234 27.2896 19.8234Z" fill="white"/>
<defs>
<filter id="filter0_d_3979_2602" x="-0.008641" y="0.589881" width="59.2189" height="59.2185" filterUnits="userSpaceOnUse" color-interpolation-filters="sRGB">
<feFlood flood-opacity="0" result="BackgroundImageFix"/>
<feColorMatrix in="SourceAlpha" type="matrix" values="0 0 0 0 0 0 0 0 0 0 0 0 0 0 0 0 0 0 127 0" result="hardAlpha"/>
<feOffset dy="2.59852"/>
<feGaussianBlur stdDeviation="1.73235"/>
<feComposite in2="hardAlpha" operator="out"/>
<feColorMatrix type="matrix" values="0 0 0 0 0 0 0 0 0 0 0 0 0 0 0 0 0 0 0.25 0"/>
<feBlend mode="normal" in2="BackgroundImageFix" result="effect1_dropShadow_3979_2602"/>
<feBlend mode="normal" in="SourceGraphic" in2="effect1_dropShadow_3979_2602" result="shape"/>
</filter>
</defs>
</svg>
