<svg width="24" height="24" viewBox="0 0 24 24" fill="none" xmlns="http://www.w3.org/2000/svg">
<path fill-rule="evenodd" clip-rule="evenodd" d="M5.374 4.89038C3.715 5.64838 2.5 7.45238 2.5 9.60338C2.5 11.8004 3.4 13.4944 4.688 14.9464C5.751 16.1424 7.037 17.1344 8.291 18.1004C8.58967 18.3304 8.88467 18.5597 9.176 18.7884C9.702 19.2034 10.171 19.5664 10.624 19.8314C11.077 20.0964 11.44 20.2164 11.75 20.2164C12.06 20.2164 12.424 20.0964 12.876 19.8314C13.329 19.5664 13.798 19.2034 14.324 18.7884C14.6153 18.559 14.9103 18.33 15.209 18.1014C16.463 17.1334 17.749 16.1424 18.812 14.9464C20.101 13.4944 21 11.8004 21 9.60338C21 7.45338 19.785 5.64838 18.126 4.89038C16.514 4.15338 14.348 4.34838 12.29 6.48738C12.22 6.55996 12.1362 6.6177 12.0434 6.65714C11.9506 6.69657 11.8508 6.7169 11.75 6.7169C11.6492 6.7169 11.5494 6.69657 11.4566 6.65714C11.3638 6.6177 11.28 6.55996 11.21 6.48738C9.152 4.34838 6.986 4.15338 5.374 4.89038ZM11.75 4.92638C9.438 2.85638 6.849 2.56638 4.75 3.52538C2.536 4.54038 1 6.89238 1 9.60438C1 12.2694 2.11 14.3034 3.567 15.9434C4.733 17.2564 6.16 18.3554 7.421 19.3254C7.70767 19.5454 7.983 19.7594 8.247 19.9674C8.76 20.3714 9.31 20.8014 9.867 21.1274C10.424 21.4534 11.06 21.7174 11.75 21.7174C12.44 21.7174 13.076 21.4524 13.633 21.1274C14.191 20.8014 14.74 20.3714 15.253 19.9674C15.517 19.7594 15.7923 19.5454 16.079 19.3254C17.339 18.3554 18.767 17.2554 19.933 15.9434C21.39 14.3034 22.5 12.2694 22.5 9.60438C22.5 6.89238 20.965 4.54038 18.75 3.52738C16.651 2.56738 14.062 2.85738 11.75 4.92638Z" fill="#070707"/>
</svg>
