<svg width="18" height="20" viewBox="0 0 18 20" fill="none" xmlns="http://www.w3.org/2000/svg">
<path d="M1.90509 18.5424H6.47614V12.2566C6.47614 11.9735 6.57229 11.7362 6.76461 11.5447C6.9561 11.3524 7.19341 11.2562 7.47652 11.2562H11.1908C11.4739 11.2562 11.7116 11.3524 11.9039 11.5447C12.0954 11.7362 12.1912 11.9735 12.1912 12.2566V18.5424H16.7622V7.7809C16.7622 7.65379 16.7346 7.53823 16.6793 7.43423C16.624 7.33023 16.5485 7.23944 16.4527 7.16185L9.7868 2.13766C9.65969 2.02706 9.50864 1.97176 9.33366 1.97176C9.15868 1.97176 9.00804 2.02706 8.88175 2.13766L2.21461 7.16185C2.11969 7.24109 2.04417 7.33188 1.98804 7.43423C1.93191 7.53658 1.90426 7.65214 1.90509 7.7809V18.5424ZM0.666992 18.5424V7.7809C0.666992 7.46395 0.737976 7.16392 0.879944 6.8808C1.02191 6.59769 1.21753 6.36452 1.4668 6.18128L8.13394 1.13233C8.48309 0.865724 8.88175 0.732422 9.32994 0.732422C9.77814 0.732422 10.1793 0.865724 10.5334 1.13233L17.2005 6.18004C17.4506 6.36328 17.6462 6.59687 17.7874 6.8808C17.9293 7.16392 18.0003 7.46395 18.0003 7.7809V18.5424C18.0003 18.8742 17.8769 19.1635 17.6301 19.4103C17.3833 19.6571 17.094 19.7805 16.7622 19.7805H11.9535C11.6695 19.7805 11.4318 19.6848 11.2403 19.4933C11.0488 19.301 10.9531 19.0632 10.9531 18.7801V12.4956H7.71423V18.7801C7.71423 19.0641 7.61848 19.3018 7.42699 19.4933C7.2355 19.6848 6.9982 19.7805 6.71509 19.7805H1.90509C1.57328 19.7805 1.28398 19.6571 1.03718 19.4103C0.790389 19.1635 0.666992 18.8742 0.666992 18.5424Z" fill="#135DB2"/>
<path d="M17 19H12V12H7V19H1V7H2.13867L9.5 1L16.8613 7H17V19Z" fill="#135DB2"/>
</svg>
