<svg width="14" height="12" viewBox="0 0 14 12" fill="none" xmlns="http://www.w3.org/2000/svg">
<mask id="path-1-inside-1_262_3793" fill="white">
<path fill-rule="evenodd" clip-rule="evenodd" d="M2.69169 1.16331C1.67077 1.62977 0.923077 2.73992 0.923077 4.06362C0.923077 5.41562 1.47692 6.45808 2.26954 7.35162C2.92369 8.08762 3.71508 8.69808 4.48677 9.29254C4.67056 9.43408 4.8521 9.57521 5.03138 9.71593C5.35508 9.97131 5.64369 10.1947 5.92246 10.3578C6.20123 10.5208 6.42462 10.5947 6.61538 10.5947C6.80615 10.5947 7.03015 10.5208 7.30831 10.3578C7.58708 10.1947 7.87569 9.97131 8.19938 9.71593C8.37867 9.5748 8.56021 9.43387 8.744 9.29316C9.51569 8.69746 10.3071 8.08762 10.9612 7.35162C11.7545 6.45808 12.3077 5.41562 12.3077 4.06362C12.3077 2.74054 11.56 1.62977 10.5391 1.16331C9.54708 0.709771 8.21415 0.829771 6.94769 2.14608C6.90464 2.19075 6.85302 2.22628 6.79592 2.25055C6.73883 2.27481 6.67742 2.28732 6.61538 2.28732C6.55334 2.28732 6.49194 2.27481 6.43484 2.25055C6.37775 2.22628 6.32613 2.19075 6.28308 2.14608C5.01662 0.829771 3.68369 0.709771 2.69169 1.16331ZM6.61538 1.18546C5.19262 -0.088383 3.59938 -0.266845 2.30769 0.323309C0.945231 0.947925 0 2.39531 0 4.06423C0 5.70423 0.683077 6.95592 1.57969 7.96516C2.29723 8.77316 3.17538 9.44946 3.95138 10.0464C4.12779 10.1818 4.29723 10.3135 4.45969 10.4415C4.77538 10.6901 5.11385 10.9547 5.45661 11.1553C5.79938 11.3559 6.19077 11.5184 6.61538 11.5184C7.04 11.5184 7.43138 11.3553 7.77415 11.1553C8.11754 10.9547 8.45538 10.6901 8.77108 10.4415C8.93354 10.3135 9.10297 10.1818 9.27938 10.0464C10.0548 9.44946 10.9335 8.77254 11.6511 7.96516C12.5477 6.95592 13.2308 5.70423 13.2308 4.06423C13.2308 2.39531 12.2862 0.947925 10.9231 0.32454C9.63138 -0.266229 8.03815 -0.0877676 6.61538 1.18546Z"/>
</mask>
<path fill-rule="evenodd" clip-rule="evenodd" d="M2.69169 1.16331C1.67077 1.62977 0.923077 2.73992 0.923077 4.06362C0.923077 5.41562 1.47692 6.45808 2.26954 7.35162C2.92369 8.08762 3.71508 8.69808 4.48677 9.29254C4.67056 9.43408 4.8521 9.57521 5.03138 9.71593C5.35508 9.97131 5.64369 10.1947 5.92246 10.3578C6.20123 10.5208 6.42462 10.5947 6.61538 10.5947C6.80615 10.5947 7.03015 10.5208 7.30831 10.3578C7.58708 10.1947 7.87569 9.97131 8.19938 9.71593C8.37867 9.5748 8.56021 9.43387 8.744 9.29316C9.51569 8.69746 10.3071 8.08762 10.9612 7.35162C11.7545 6.45808 12.3077 5.41562 12.3077 4.06362C12.3077 2.74054 11.56 1.62977 10.5391 1.16331C9.54708 0.709771 8.21415 0.829771 6.94769 2.14608C6.90464 2.19075 6.85302 2.22628 6.79592 2.25055C6.73883 2.27481 6.67742 2.28732 6.61538 2.28732C6.55334 2.28732 6.49194 2.27481 6.43484 2.25055C6.37775 2.22628 6.32613 2.19075 6.28308 2.14608C5.01662 0.829771 3.68369 0.709771 2.69169 1.16331ZM6.61538 1.18546C5.19262 -0.088383 3.59938 -0.266845 2.30769 0.323309C0.945231 0.947925 0 2.39531 0 4.06423C0 5.70423 0.683077 6.95592 1.57969 7.96516C2.29723 8.77316 3.17538 9.44946 3.95138 10.0464C4.12779 10.1818 4.29723 10.3135 4.45969 10.4415C4.77538 10.6901 5.11385 10.9547 5.45661 11.1553C5.79938 11.3559 6.19077 11.5184 6.61538 11.5184C7.04 11.5184 7.43138 11.3553 7.77415 11.1553C8.11754 10.9547 8.45538 10.6901 8.77108 10.4415C8.93354 10.3135 9.10297 10.1818 9.27938 10.0464C10.0548 9.44946 10.9335 8.77254 11.6511 7.96516C12.5477 6.95592 13.2308 5.70423 13.2308 4.06423C13.2308 2.39531 12.2862 0.947925 10.9231 0.32454C9.63138 -0.266229 8.03815 -0.0877676 6.61538 1.18546Z" fill="#070707"/>
<path d="M2.69169 1.16331L3.14883 2.16382L3.14907 2.16371L2.69169 1.16331ZM2.26954 7.35162L1.44664 8.08157L1.44735 8.08237L2.26954 7.35162ZM4.48677 9.29254L3.81548 10.164L3.81562 10.1641L4.48677 9.29254ZM5.03138 9.71593L5.71273 8.85234L5.71055 8.85063L5.03138 9.71593ZM7.30831 10.3578L6.75288 9.4083L6.75196 9.40883L7.30831 10.3578ZM8.19938 9.71593L7.51899 8.85159L7.51804 8.85234L8.19938 9.71593ZM8.744 9.29316L9.41271 10.1666L9.41616 10.1639L8.744 9.29316ZM10.9612 7.35162L11.7834 8.08237L11.7838 8.08189L10.9612 7.35162ZM10.5391 1.16331L10.0817 2.16371L10.0819 2.16382L10.5391 1.16331ZM6.94769 2.14608L7.73969 2.90945L7.74037 2.90874L6.94769 2.14608ZM6.28308 2.14608L5.4904 2.90874L5.49108 2.90945L6.28308 2.14608ZM6.61538 1.18546L5.88164 2.00499L6.61521 2.66177L7.34893 2.00516L6.61538 1.18546ZM2.30769 0.323309L1.85057 -0.677211L1.84928 -0.676619L2.30769 0.323309ZM1.57969 7.96516L2.40219 7.23474L2.40204 7.23457L1.57969 7.96516ZM3.95138 10.0464L3.2807 10.9183L3.28168 10.919L3.95138 10.0464ZM4.45969 10.4415L3.77893 11.3055L3.77912 11.3057L4.45969 10.4415ZM7.77415 11.1553L8.32852 12.1054L8.32905 12.1051L7.77415 11.1553ZM8.77108 10.4415L9.45165 11.3057L9.45184 11.3055L8.77108 10.4415ZM9.27938 10.0464L9.94909 10.919L9.9504 10.918L9.27938 10.0464ZM11.6511 7.96516L12.4733 8.69588L12.4734 8.69574L11.6511 7.96516ZM10.9231 0.32454L10.4656 1.32488L10.4656 1.32489L10.9231 0.32454ZM2.69169 1.16331L2.23456 0.162796C0.805077 0.815928 -0.176923 2.32826 -0.176923 4.06362H0.923077H2.02308C2.02308 3.15159 2.53646 2.44361 3.14883 2.16382L2.69169 1.16331ZM0.923077 4.06362H-0.176923C-0.176923 5.75884 0.531802 7.05025 1.44664 8.08157L2.26954 7.35162L3.09244 6.62166C2.42204 5.86591 2.02308 5.07239 2.02308 4.06362H0.923077ZM2.26954 7.35162L1.44735 8.08237C2.18177 8.90868 3.05762 9.58015 3.81548 10.164L4.48677 9.29254L5.15806 8.42112C4.37253 7.816 3.66562 7.26655 3.09173 6.62086L2.26954 7.35162ZM4.48677 9.29254L3.81562 10.1641C3.99678 10.3036 4.17564 10.4426 4.35222 10.5812L5.03138 9.71593L5.71055 8.85063C5.52856 8.70779 5.34435 8.56458 5.15792 8.42102L4.48677 9.29254ZM5.03138 9.71593L4.35004 10.5795C4.66453 10.8276 5.01167 11.0994 5.36703 11.3072L5.92246 10.3578L6.47789 9.4083C6.27572 9.29003 6.04562 9.11499 5.71273 8.85234L5.03138 9.71593ZM5.92246 10.3578L5.36703 11.3072C5.72321 11.5156 6.14563 11.6947 6.61538 11.6947V10.5947V9.49469C6.66313 9.49469 6.67997 9.50406 6.65523 9.49567C6.62877 9.48669 6.57171 9.46318 6.47789 9.4083L5.92246 10.3578ZM6.61538 10.5947V11.6947C7.08472 11.6947 7.50771 11.516 7.86465 11.3067L7.30831 10.3578L6.75196 9.40883C6.6591 9.46328 6.60235 9.48666 6.57599 9.4956C6.55119 9.504 6.5678 9.49469 6.61538 9.49469V10.5947ZM7.30831 10.3578L7.86374 11.3072C8.2191 11.0994 8.56624 10.8276 8.88073 10.5795L8.19938 9.71593L7.51804 8.85234C7.18515 9.11499 6.95505 9.29003 6.75288 9.4083L7.30831 10.3578ZM8.19938 9.71593L8.87977 10.5803C9.05512 10.4422 9.23277 10.3043 9.4127 10.1666L8.744 9.29316L8.0753 8.41975C7.88764 8.56342 7.70221 8.70737 7.51899 8.85159L8.19938 9.71593ZM8.744 9.29316L9.41616 10.1639C10.1728 9.57984 11.0491 8.90861 11.7834 8.08237L10.9612 7.35162L10.139 6.62086C9.56509 7.26663 8.85859 7.81509 8.07184 8.42241L8.744 9.29316ZM10.9612 7.35162L11.7838 8.08189C12.6998 7.05009 13.4077 5.75858 13.4077 4.06362H12.3077H11.2077C11.2077 5.07266 10.8091 5.86606 10.1386 6.62134L10.9612 7.35162ZM12.3077 4.06362H13.4077C13.4077 2.329 12.4258 0.815977 10.9962 0.162796L10.5391 1.16331L10.0819 2.16382C10.6942 2.44356 11.2077 3.15208 11.2077 4.06362H12.3077ZM10.5391 1.16331L10.9965 0.162907C9.52785 -0.508535 7.70412 -0.22667 6.15501 1.38341L6.94769 2.14608L7.74037 2.90874C8.72418 1.88621 9.56631 1.92808 10.0817 2.16371L10.5391 1.16331ZM6.94769 2.14608L6.15569 1.38271C6.21525 1.32092 6.28665 1.27177 6.36564 1.23819L6.79592 2.25055L7.22621 3.2629C7.41939 3.18079 7.59403 3.06058 7.73969 2.90945L6.94769 2.14608ZM6.79592 2.25055L6.36564 1.23819C6.44463 1.20462 6.52957 1.18732 6.61538 1.18732V2.28732V3.38732C6.82528 3.38732 7.03303 3.345 7.22621 3.2629L6.79592 2.25055ZM6.61538 2.28732V1.18732C6.7012 1.18732 6.78614 1.20462 6.86513 1.23819L6.43484 2.25055L6.00456 3.2629C6.19774 3.345 6.40549 3.38732 6.61538 3.38732V2.28732ZM6.43484 2.25055L6.86513 1.23819C6.94411 1.27177 7.01552 1.32092 7.07508 1.38271L6.28308 2.14608L5.49108 2.90945C5.63674 3.06058 5.81138 3.18079 6.00456 3.2629L6.43484 2.25055ZM6.28308 2.14608L7.07576 1.38341C5.52664 -0.22667 3.70292 -0.508535 2.23431 0.162907L2.69169 1.16331L3.14907 2.16371C3.66446 1.92808 4.50659 1.88621 5.4904 2.90874L6.28308 2.14608ZM6.61538 1.18546L7.34913 0.365939C5.63218 -1.1713 3.57704 -1.46601 1.85057 -0.67721L2.30769 0.323309L2.76481 1.32383C3.62173 0.932319 4.75305 0.994531 5.88164 2.00499L6.61538 1.18546ZM2.30769 0.323309L1.84928 -0.676619C0.0794451 0.134754 -1.1 1.9836 -1.1 4.06423H0H1.1C1.1 2.80702 1.81102 1.7611 2.76611 1.32324L2.30769 0.323309ZM0 4.06423H-1.1C-1.1 6.04762 -0.261907 7.54846 0.757348 8.69574L1.57969 7.96516L2.40204 7.23457C1.62806 6.36339 1.1 5.36085 1.1 4.06423H0ZM1.57969 7.96516L0.757196 8.69557C1.5551 9.59406 2.51741 10.3311 3.2807 10.9183L3.95138 10.0464L4.62207 9.1745C3.83336 8.5678 3.03937 7.95225 2.40219 7.23474L1.57969 7.96516ZM3.95138 10.0464L3.28168 10.919C3.45466 11.0518 3.6204 11.1806 3.77893 11.3055L4.45969 10.4415L5.14045 9.57742C4.97406 9.44633 4.80093 9.31176 4.62109 9.17375L3.95138 10.0464ZM4.45969 10.4415L3.77912 11.3057C4.08543 11.5469 4.48215 11.8595 4.90098 12.1047L5.45661 11.1553L6.01225 10.206C5.74554 10.0499 5.46534 9.83328 5.14026 9.57727L4.45969 10.4415ZM5.45661 11.1553L4.90098 12.1047C5.32159 12.3508 5.91196 12.6184 6.61538 12.6184V11.5184V10.4184C6.46958 10.4184 6.27718 10.361 6.01225 10.206L5.45661 11.1553ZM6.61538 11.5184V12.6184C7.31946 12.6184 7.90995 12.3496 8.32852 12.1054L7.77415 11.1553L7.21979 10.2052C6.95282 10.361 6.76054 10.4184 6.61538 10.4184V11.5184ZM7.77415 11.1553L8.32905 12.1051C8.74923 11.8596 9.14611 11.5463 9.45165 11.3057L8.77108 10.4415L8.09051 9.57727C7.76465 9.83389 7.48585 10.0498 7.21926 10.2055L7.77415 11.1553ZM8.77108 10.4415L9.45184 11.3055C9.61037 11.1806 9.7761 11.0518 9.94909 10.919L9.27938 10.0464L8.60968 9.17375C8.42984 9.31176 8.25671 9.44633 8.09032 9.57742L8.77108 10.4415ZM9.27938 10.0464L9.9504 10.918C10.7128 10.3311 11.6756 9.59345 12.4733 8.69588L11.6511 7.96516L10.8289 7.23443C10.1915 7.95163 9.3967 8.56786 8.60837 9.17476L9.27938 10.0464ZM11.6511 7.96516L12.4734 8.69574C13.4927 7.54846 14.3308 6.04762 14.3308 4.06423H13.2308H12.1308C12.1308 5.36085 11.6027 6.36339 10.8287 7.23457L11.6511 7.96516ZM13.2308 4.06423H14.3308C14.3308 1.98402 13.1522 0.134426 11.3806 -0.675809L10.9231 0.32454L10.4656 1.32489C11.4201 1.76142 12.1308 2.8066 12.1308 4.06423H13.2308ZM10.9231 0.32454L11.3806 -0.675799C9.65396 -1.46549 7.59874 -1.17069 5.88184 0.365763L6.61538 1.18546L7.34893 2.00516C8.47757 0.995153 9.6088 0.933033 10.4656 1.32488L10.9231 0.32454Z" fill="#070707" mask="url(#path-1-inside-1_262_3793)"/>
</svg>
