<svg width="18" height="24" viewBox="0 0 18 24" fill="none" xmlns="http://www.w3.org/2000/svg">
<path d="M9.3291 0.474609C11.9649 0.474705 14.0489 1.45938 15.4727 3.03418C16.8947 4.60718 17.6504 6.76016 17.6504 9.08594C17.6503 11.4213 16.6134 13.9321 15.2393 16.2539C14.0352 18.2883 12.564 20.191 11.2773 21.7217L10.7383 22.3545C10.7264 22.3682 10.5953 22.5159 10.3877 22.6611C10.181 22.8057 9.88244 22.959 9.54199 22.959H9.48926C9.14901 22.9589 8.84987 22.8056 8.64258 22.6611C8.44231 22.5216 8.3118 22.3789 8.29004 22.3535V22.3545C6.80359 20.6307 4.94542 18.5303 3.45996 16.2598C1.97561 13.9909 0.849662 11.5316 0.849609 9.08594C0.849609 4.41732 4.73446 0.474609 9.3291 0.474609ZM9.3291 2.16113C5.64515 2.16113 2.52539 5.33162 2.52539 9.08594C2.52544 11.085 3.47191 13.1944 4.78613 15.2236C6.09878 17.2504 7.76419 19.1774 9.17676 20.8115L9.5127 21.2021C11.6604 18.7076 13.2758 16.4409 14.3545 14.416C15.4375 12.383 15.9746 10.603 15.9746 9.08594C15.9746 7.35295 15.4574 5.62052 14.3721 4.32422C13.2901 3.03192 11.6345 2.16123 9.3291 2.16113ZM9.27441 4.67285C11.6363 4.67305 13.5488 6.60382 13.5488 8.98242C13.5488 11.361 11.6363 13.2918 9.27441 13.292C6.91237 13.292 4.99902 11.3612 4.99902 8.98242C4.99905 6.6037 6.91238 4.67285 9.27441 4.67285ZM9.24219 6.3291C7.81002 6.32921 6.64258 7.50492 6.64258 8.95215C6.64268 10.3996 7.8421 11.6055 9.27441 11.6055C10.7032 11.6053 11.8434 10.404 11.8428 8.95215L11.8291 8.68359C11.6955 7.36205 10.5857 6.3291 9.24219 6.3291Z" fill="#4A9BF6" stroke="#4A9BF6" stroke-width="0.3"/>
</svg>
