<svg width="24" height="24" viewBox="0 0 24 24" fill="none" xmlns="http://www.w3.org/2000/svg">
<path d="M8.68262 18.25C8.68262 19.112 9.02502 19.9386 9.63452 20.5481C10.244 21.1576 11.0706 21.5 11.9326 21.5C12.7946 21.5 13.6212 21.1576 14.2307 20.5481C14.8402 19.9386 15.1826 19.112 15.1826 18.25" stroke="#070707" stroke-width="1.39286" stroke-linecap="round" stroke-linejoin="round"/>
<path d="M4.62012 9.3125C4.62012 7.3731 5.39054 5.51314 6.7619 4.14178C8.13326 2.77042 9.99322 2 11.9326 2C13.872 2 15.732 2.77042 17.1033 4.14178C18.4747 5.51314 19.2451 7.3731 19.2451 9.3125C19.2451 12.9505 20.0881 15.8734 20.7584 17.0312C20.8296 17.1546 20.8671 17.2944 20.8672 17.4368C20.8674 17.5792 20.8301 17.7191 20.7591 17.8425C20.6881 17.9659 20.586 18.0686 20.4628 18.1401C20.3397 18.2116 20.2 18.2495 20.0576 18.25H3.80762C3.66541 18.2491 3.52591 18.211 3.40308 18.1393C3.28024 18.0677 3.17837 17.965 3.10763 17.8416C3.0369 17.7183 2.99979 17.5785 3 17.4363C3.00022 17.2941 3.03776 17.1544 3.10887 17.0312C3.77816 15.8734 4.62012 12.9495 4.62012 9.3125Z" stroke="#070707" stroke-width="1.53" stroke-linecap="round" stroke-linejoin="round"/>
</svg>
