<svg width="26" height="26" viewBox="0 0 26 26" fill="none" xmlns="http://www.w3.org/2000/svg">
<g clip-path="url(#clip0_66_929)">
<path d="M9.75 19.5C9.75 20.362 10.0924 21.1886 10.7019 21.7981C11.3114 22.4076 12.138 22.75 13 22.75C13.862 22.75 14.6886 22.4076 15.2981 21.7981C15.9076 21.1886 16.25 20.362 16.25 19.5" stroke="#070707" stroke-width="1.39286" stroke-linecap="round" stroke-linejoin="round"/>
<path d="M5.6875 10.5625C5.6875 8.6231 6.45792 6.76314 7.82928 5.39178C9.20064 4.02042 11.0606 3.25 13 3.25C14.9394 3.25 16.7994 4.02042 18.1707 5.39178C19.5421 6.76314 20.3125 8.6231 20.3125 10.5625C20.3125 14.2005 21.1555 17.1234 21.8258 18.2812C21.897 18.4046 21.9345 18.5444 21.9346 18.6868C21.9348 18.8292 21.8975 18.9691 21.8265 19.0925C21.7555 19.2159 21.6534 19.3186 21.5302 19.3901C21.4071 19.4616 21.2674 19.4995 21.125 19.5H4.875C4.73279 19.4991 4.59329 19.461 4.47046 19.3893C4.34762 19.3177 4.24575 19.215 4.17501 19.0916C4.10428 18.9683 4.06717 18.8285 4.06738 18.6863C4.0676 18.5441 4.10514 18.4044 4.17625 18.2812C4.84554 17.1234 5.6875 14.1995 5.6875 10.5625Z" stroke="#070707" stroke-width="1.53" stroke-linecap="round" stroke-linejoin="round"/>
<circle cx="22.5" cy="2.5" r="2.5" fill="#FF7171"/>
</g>
<defs>
<clipPath id="clip0_66_929">
<rect width="26" height="26" fill="white"/>
</clipPath>
</defs>
</svg>
