<svg width="39" height="34" viewBox="0 0 39 34" fill="none" xmlns="http://www.w3.org/2000/svg">
<g clip-path="url(#clip0_536_3266)">
<path d="M10.5993 12.2442C9.63117 10.2821 7.6303 9.28809 6.14579 10.0239C4.66127 10.7597 4.23528 12.9542 5.21635 14.9034C6.18451 16.8656 8.18538 17.8595 9.6699 17.1237C11.1544 16.3879 11.5804 14.1934 10.5993 12.2313V12.2442Z" fill="#D9D9D9"/>
<path d="M15.7494 12.0757C17.3759 11.74 18.2666 9.39064 17.7374 6.82179C17.2081 4.25293 15.4654 2.4457 13.8389 2.78133C12.2124 3.11696 11.3217 5.46636 11.851 8.03522C12.3802 10.6041 14.1229 12.4113 15.7494 12.0757Z" fill="#D9D9D9"/>
<path d="M33.4081 10.6177C31.9494 9.81732 29.9227 10.7209 28.8642 12.6444C27.8056 14.5678 28.1284 16.7623 29.5871 17.5626C31.0458 18.363 33.0724 17.4593 34.131 15.5359C35.1895 13.6125 34.8668 11.418 33.4081 10.6177Z" fill="#D9D9D9"/>
<path d="M23.7398 12.2547C25.3534 12.6549 27.1736 10.9251 27.8061 8.38203C28.4386 5.839 27.6512 3.45087 26.0376 3.05069C24.424 2.65052 22.6039 4.3803 21.9713 6.92334C21.3388 9.46638 22.1262 11.8545 23.7398 12.2547Z" fill="#D9D9D9"/>
<path d="M27.823 20.4428C27.2435 17.1145 23.849 14.5645 19.7259 14.5645C15.6028 14.5645 12.2083 17.131 11.6287 20.4428C8.51569 21.4197 6.28027 23.9201 6.28027 26.8675C6.28027 30.676 9.95629 33.7559 14.4933 33.7559C16.4804 33.7559 18.3018 33.1598 19.7259 32.1828C21.1499 33.1598 22.9714 33.7559 24.9584 33.7559C29.4955 33.7559 33.1715 30.676 33.1715 26.8675C33.1715 23.9201 30.9361 21.4197 27.823 20.4428Z" fill="#D9D9D9"/>
<path d="M19.432 19.6803C19.6305 19.6624 19.8064 19.8082 19.8243 20.0067L20.154 23.65C20.3876 23.7431 20.5855 23.909 20.7184 24.1225L25.8566 23.6576C26.0655 23.6387 26.2502 23.7928 26.2691 24.0018L26.2965 24.3042C26.3154 24.5132 26.1613 24.6979 25.9524 24.7168L20.8113 25.1819C20.6515 25.5789 20.281 25.875 19.8256 25.9163C19.178 25.9749 18.6052 25.4971 18.5465 24.8495C18.5052 24.3927 18.7311 23.9739 19.0948 23.7458L18.7652 20.1025C18.7473 19.9041 18.8933 19.7292 19.0916 19.7111L19.432 19.6803Z" fill="white"/>
</g>
<defs>
<clipPath id="clip0_536_3266">
<rect width="38.565" height="33.1338" fill="white" transform="translate(0.435547 0.609375)"/>
</clipPath>
</defs>
</svg>
