<svg width="159" height="159" viewBox="0 0 159 159" fill="none" xmlns="http://www.w3.org/2000/svg">
<g filter="url(#filter0_d_536_3153)">
<circle cx="79.4354" cy="74.4354" r="49.0688" transform="rotate(17.2905 79.4354 74.4354)" fill="url(#paint0_radial_536_3153)" shape-rendering="crispEdges"/>
</g>
<g clip-path="url(#clip0_536_3153)">
<path d="M57.0905 47.8946C58.3406 47.6951 59.6873 48.1657 60.8648 49.2935C62.0426 50.4215 62.9768 52.153 63.3051 54.2322L63.3172 54.2328C63.6516 56.3075 63.3031 58.2364 62.5369 59.6705C61.816 61.0194 60.7727 61.8656 59.614 62.1307L59.3811 62.1758C58.1308 62.3755 56.7844 61.9049 55.6067 60.7769C54.5025 59.7194 53.6119 58.1321 53.2344 56.2245L53.1662 55.8392L53.1635 55.8281L53.1079 55.4416C52.8662 53.5221 53.216 51.7434 53.9353 50.3981C54.6549 49.0525 55.6975 48.2057 56.8564 47.9403L57.0905 47.8946Z" fill="white" stroke="white" stroke-width="2.84457"/>
<path d="M77.4666 37.7995C78.6163 37.9129 79.7868 38.7728 80.6528 40.4962C81.4562 42.0952 81.8987 44.2804 81.7369 46.7096L81.6964 47.1981C81.4369 49.8214 80.5332 52.0602 79.3565 53.5648C78.2416 54.9904 77.0122 55.62 75.9146 55.5996L75.6966 55.587C74.5469 55.4735 73.3764 54.6136 72.5104 52.8902C71.7069 51.2912 71.2645 49.106 71.4263 46.6768L71.4668 46.1883C71.7263 43.5652 72.6301 41.3262 73.8067 39.8216C74.9215 38.3961 76.151 37.7665 77.2486 37.7868L77.4666 37.7995Z" fill="white" stroke="white" stroke-width="2.84457"/>
<path d="M108.445 65.2449C109.956 65.0664 111.241 65.4366 112.127 66.2416L112.299 66.4087C113.185 67.3281 113.568 68.6969 113.316 70.2969C113.08 71.7995 112.286 73.4333 110.93 74.8409L110.652 75.1195C109.126 76.5873 107.34 77.4067 105.726 77.5975C104.216 77.7761 102.93 77.4056 102.045 76.6008L101.873 76.4338C100.986 75.5144 100.603 74.1455 100.854 72.5452C101.091 71.0427 101.885 69.4089 103.241 68.0012L103.52 67.7229C105.046 66.2551 106.832 65.4357 108.445 65.2449Z" fill="white" stroke="white" stroke-width="2.84457"/>
<path d="M97.9485 46.319C99.5695 45.5182 100.952 45.4827 101.936 45.9771L102.128 46.0826C103.116 46.6816 103.8 47.9639 103.834 49.895C103.869 51.8056 103.243 54.1396 101.876 56.3918C100.51 58.6425 98.7277 60.2664 97.0166 61.1119C95.3958 61.9126 94.0135 61.9491 93.0293 61.455L92.8375 61.3483C91.8494 60.7492 91.1664 59.4671 91.1317 57.5362C91.0996 55.7451 91.6463 53.5821 92.8411 51.4632L93.0896 51.0394C94.4558 48.7889 96.2375 47.1644 97.9485 46.319Z" fill="white" stroke="white" stroke-width="2.84457"/>
<path d="M95.2994 82.2851C96.2512 74.9697 90.8288 67.45 82.2324 64.7741C73.636 62.0982 64.893 65.2463 61.5353 71.7749C54.4108 71.7914 48.1274 75.5537 46.2145 81.6989C43.7428 89.6394 49.4081 98.4465 58.8676 101.391C63.0105 102.681 67.1949 102.62 70.798 101.507C73.133 104.468 76.5437 106.893 80.6866 108.183C90.1461 111.128 99.8092 107.092 102.281 99.1514C104.194 93.0062 101.156 86.3423 95.2994 82.2851Z" fill="url(#paint1_radial_536_3153)"/>
<g filter="url(#filter1_d_536_3153)">
<mask id="path-7-outside-1_536_3153" maskUnits="userSpaceOnUse" x="71.5024" y="73.4451" width="21.726" height="18.6551" fill="black">
<rect fill="white" x="71.5024" y="73.4451" width="21.726" height="18.6551"/>
<path d="M78.2993 75.2512C78.7246 75.3428 78.9948 75.7617 78.9034 76.187L77.2253 84.0011C77.6497 84.3452 77.954 84.8167 78.0933 85.3451L89.1125 87.7116C89.5602 87.8078 89.845 88.2486 89.7491 88.6963L89.6096 89.3456C89.5134 89.7932 89.0727 90.0781 88.6249 89.9821L77.6047 87.6154C77.0142 88.343 76.0478 88.7223 75.0689 88.5121C73.6805 88.214 72.7967 86.8466 73.0948 85.4582C73.3052 84.4788 74.0482 83.7528 74.9548 83.5134L76.6329 75.6994C76.7243 75.274 77.1435 75.0031 77.5689 75.0944L78.2993 75.2512Z"/>
</mask>
<path d="M78.2993 75.2512C78.7246 75.3428 78.9948 75.7617 78.9034 76.187L77.2253 84.0011C77.6497 84.3452 77.954 84.8167 78.0933 85.3451L89.1125 87.7116C89.5602 87.8078 89.845 88.2486 89.7491 88.6963L89.6096 89.3456C89.5134 89.7932 89.0727 90.0781 88.6249 89.9821L77.6047 87.6154C77.0142 88.343 76.0478 88.7223 75.0689 88.5121C73.6805 88.214 72.7967 86.8466 73.0948 85.4582C73.3052 84.4788 74.0482 83.7528 74.9548 83.5134L76.6329 75.6994C76.7243 75.274 77.1435 75.0031 77.5689 75.0944L78.2993 75.2512Z" fill="white"/>
<path d="M78.2993 75.2512L78.3293 75.1122L78.3292 75.1122L78.2993 75.2512ZM77.2253 84.0011L77.0862 83.9712L77.0679 84.0565L77.1357 84.1115L77.2253 84.0011ZM78.0933 85.3451L77.9558 85.3814L77.978 85.4658L78.0634 85.4842L78.0933 85.3451ZM89.1125 87.7116L89.1424 87.5725L89.1424 87.5725L89.1125 87.7116ZM89.7491 88.6963L89.8881 88.7262L89.8881 88.7261L89.7491 88.6963ZM89.6096 89.3456L89.7487 89.3755L89.7487 89.3754L89.6096 89.3456ZM88.6249 89.9821L88.5951 90.1211L88.5951 90.1212L88.6249 89.9821ZM77.6047 87.6154L77.6346 87.4763L77.5493 87.458L77.4943 87.5258L77.6047 87.6154ZM75.0689 88.5121L75.039 88.6512L75.039 88.6512L75.0689 88.5121ZM73.0948 85.4582L72.9558 85.4284L72.9558 85.4284L73.0948 85.4582ZM74.9548 83.5134L74.9911 83.651L75.0755 83.6287L75.0938 83.5433L74.9548 83.5134ZM77.5689 75.0944L77.5988 74.9553L77.5987 74.9553L77.5689 75.0944ZM78.2993 75.2512L78.2694 75.3903C78.6177 75.4653 78.8392 75.8085 78.7644 76.1572L78.9034 76.187L79.0425 76.2169C79.1503 75.7149 78.8314 75.2203 78.3293 75.1122L78.2993 75.2512ZM78.9034 76.187L78.7644 76.1572L77.0862 83.9712L77.2253 84.0011L77.3643 84.0309L79.0425 76.2169L78.9034 76.187ZM77.2253 84.0011L77.1357 84.1115C77.5366 84.4366 77.8241 84.8821 77.9558 85.3814L78.0933 85.3451L78.2308 85.3088C78.0838 84.7513 77.7628 84.2538 77.3149 83.8906L77.2253 84.0011ZM78.0933 85.3451L78.0634 85.4842L89.0827 87.8507L89.1125 87.7116L89.1424 87.5725L78.1231 85.206L78.0933 85.3451ZM89.1125 87.7116L89.0826 87.8506C89.4535 87.9304 89.6895 88.2956 89.61 88.6665L89.7491 88.6963L89.8881 88.7261C90.0005 88.2017 89.6668 87.6853 89.1424 87.5725L89.1125 87.7116ZM89.7491 88.6963L89.61 88.6664L89.4706 89.3157L89.6096 89.3456L89.7487 89.3754L89.8881 88.7262L89.7491 88.6963ZM89.6096 89.3456L89.4706 89.3157C89.3909 89.6866 89.0257 89.9226 88.6548 89.843L88.6249 89.9821L88.5951 90.1212C89.1196 90.2336 89.6359 89.8999 89.7487 89.3755L89.6096 89.3456ZM88.6249 89.9821L88.6548 89.843L77.6346 87.4763L77.6047 87.6154L77.5749 87.7545L88.5951 90.1211L88.6249 89.9821ZM77.6047 87.6154L77.4943 87.5258C76.936 88.2137 76.0231 88.5715 75.0987 88.3731L75.0689 88.5121L75.039 88.6512C76.0726 88.8731 77.0924 88.4723 77.7152 87.705L77.6047 87.6154ZM75.0689 88.5121L75.0988 88.3731C73.7872 88.0914 72.9522 86.7997 73.2339 85.4881L73.0948 85.4582L72.9558 85.4284C72.6411 86.8935 73.5739 88.3365 75.039 88.6512L75.0689 88.5121ZM73.0948 85.4582L73.2339 85.4881C73.4325 84.5633 74.1341 83.8772 74.9911 83.651L74.9548 83.5134L74.9185 83.3759C73.9624 83.6284 73.1778 84.3943 72.9558 85.4284L73.0948 85.4582ZM74.9548 83.5134L75.0938 83.5433L76.772 75.7293L76.6329 75.6994L76.4939 75.6696L74.8157 83.4836L74.9548 83.5134ZM76.6329 75.6994L76.772 75.7293C76.8468 75.3807 77.1904 75.1587 77.5391 75.2334L77.5689 75.0944L77.5987 74.9553C77.0966 74.8476 76.6017 75.1673 76.4939 75.6696L76.6329 75.6994ZM77.5689 75.0944L77.5391 75.2334L78.2695 75.3903L78.2993 75.2512L78.3292 75.1122L77.5988 74.9553L77.5689 75.0944Z" fill="#8AB0D9" mask="url(#path-7-outside-1_536_3153)"/>
</g>
</g>
<defs>
<filter id="filter0_d_536_3153" x="0.353516" y="0.353516" width="158.164" height="158.164" filterUnits="userSpaceOnUse" color-interpolation-filters="sRGB">
<feFlood flood-opacity="0" result="BackgroundImageFix"/>
<feColorMatrix in="SourceAlpha" type="matrix" values="0 0 0 0 0 0 0 0 0 0 0 0 0 0 0 0 0 0 127 0" result="hardAlpha"/>
<feOffset dy="5"/>
<feGaussianBlur stdDeviation="15"/>
<feComposite in2="hardAlpha" operator="out"/>
<feColorMatrix type="matrix" values="0 0 0 0 0.290196 0 0 0 0 0.607843 0 0 0 0 0.964706 0 0 0 0.77 0"/>
<feBlend mode="normal" in2="BackgroundImageFix" result="effect1_dropShadow_536_3153"/>
<feBlend mode="normal" in="SourceGraphic" in2="effect1_dropShadow_536_3153" result="shape"/>
</filter>
<filter id="filter1_d_536_3153" x="70.0502" y="72.0898" width="22.7043" height="20.8979" filterUnits="userSpaceOnUse" color-interpolation-filters="sRGB">
<feFlood flood-opacity="0" result="BackgroundImageFix"/>
<feColorMatrix in="SourceAlpha" type="matrix" values="0 0 0 0 0 0 0 0 0 0 0 0 0 0 0 0 0 0 127 0" result="hardAlpha"/>
<feOffset/>
<feGaussianBlur stdDeviation="1.42228"/>
<feComposite in2="hardAlpha" operator="out"/>
<feColorMatrix type="matrix" values="0 0 0 0 0.0295144 0 0 0 0 0.333994 0 0 0 0 0.651029 0 0 0 1 0"/>
<feBlend mode="normal" in2="BackgroundImageFix" result="effect1_dropShadow_536_3153"/>
<feBlend mode="normal" in="SourceGraphic" in2="effect1_dropShadow_536_3153" result="shape"/>
</filter>
<radialGradient id="paint0_radial_536_3153" cx="0" cy="0" r="1" gradientUnits="userSpaceOnUse" gradientTransform="translate(30.3665 25.3666) rotate(45) scale(138.788 96.4351)">
<stop stop-color="white"/>
<stop offset="1" stop-color="#4A9BF6" stop-opacity="0.5"/>
</radialGradient>
<radialGradient id="paint1_radial_536_3153" cx="0" cy="0" r="1" gradientUnits="userSpaceOnUse" gradientTransform="translate(76.0048 84.7806) rotate(107.29) scale(20.9533 29.36)">
<stop stop-color="white" stop-opacity="0.7"/>
<stop offset="1" stop-color="white"/>
</radialGradient>
<clipPath id="clip0_536_3153">
<rect width="84.2111" height="72.3514" fill="white" transform="translate(51.0732 23.1523) rotate(17.2905)"/>
</clipPath>
</defs>
</svg>
