<svg width="76" height="11" viewBox="0 0 76 11" fill="none" xmlns="http://www.w3.org/2000/svg">
<g filter="url(#filter0_d_69_332)">
<path d="M3.17706 7.5235C2.86996 7.5235 2.63723 7.44432 2.47888 7.28597C2.32532 7.12282 2.21975 6.8709 2.16217 6.5302L1.82387 6.06954L2.32772 5.65927H3.52256C3.91604 5.65927 4.24234 5.60168 4.50146 5.48652C4.76058 5.37135 4.95492 5.19141 5.08448 4.94668C5.21404 4.69716 5.27882 4.37326 5.27882 3.97498C5.27882 3.36077 5.12287 2.94809 4.81096 2.73696C4.50386 2.52582 4.06479 2.42025 3.49377 2.42025H2.28453L1.66552 0.534424C1.85267 0.534424 2.0758 0.534424 2.33492 0.534424C2.59884 0.534424 2.85796 0.534424 3.11228 0.534424C3.3714 0.534424 3.58254 0.534424 3.74569 0.534424C5.0125 0.534424 5.97461 0.800743 6.63201 1.33338C7.29421 1.86602 7.62531 2.70816 7.62531 3.85981C7.62531 4.34447 7.55573 4.80753 7.41657 5.24899C7.28221 5.68566 7.06388 6.07674 6.76157 6.42223C6.45926 6.76293 6.06098 7.03165 5.56673 7.22839C5.07728 7.42513 4.47507 7.5235 3.76009 7.5235H3.17706ZM0.0460205 11V0.534424H2.32772V11H0.0460205ZM8.0583 11L11.2038 0.534424H14.7091L17.8545 11H15.4289L14.486 7.61707L15.7528 8.56718H10.5919L10.7215 6.75333H15.2489L14.4788 7.58828L13.5287 4.18372L13.0032 2.04597H12.8881L12.3698 4.18372L10.484 11H8.0583ZM20.5624 11L17.9496 0.534424H20.3968L21.5125 6.28548L21.93 9.19339H21.9731L22.3546 6.28548L23.3335 0.534424H26.3854L27.3715 6.28548L27.753 9.19339H27.789L28.228 6.28548L29.3581 0.534424H31.8054L29.1566 11H26.2702L25.2553 5.32817L24.8811 2.61459H24.8379L24.4636 5.32817L23.4559 11H20.5624ZM36.7324 7.5235C36.4253 7.5235 36.1925 7.44432 36.0342 7.28597C35.8806 7.12282 35.7751 6.8709 35.7175 6.5302L35.3792 6.06954L35.883 5.65927H37.0779C37.4713 5.65927 37.7976 5.60168 38.0568 5.48652C38.3159 5.37135 38.5102 5.19141 38.6398 4.94668C38.7693 4.69716 38.8341 4.37326 38.8341 3.97498C38.8341 3.36077 38.6782 2.94809 38.3663 2.73696C38.0592 2.52582 37.6201 2.42025 37.0491 2.42025H35.8398L35.2208 0.534424C35.408 0.534424 35.6311 0.534424 35.8902 0.534424C36.1541 0.534424 36.4133 0.534424 36.6676 0.534424C36.9267 0.534424 37.1378 0.534424 37.301 0.534424C38.5678 0.534424 39.5299 0.800743 40.1873 1.33338C40.8495 1.86602 41.1806 2.70816 41.1806 3.85981C41.1806 4.34447 41.111 4.80753 40.9719 5.24899C40.8375 5.68566 40.6192 6.07674 40.3169 6.42223C40.0146 6.76293 39.6163 7.03165 39.122 7.22839C38.6326 7.42513 38.0304 7.5235 37.3154 7.5235H36.7324ZM33.6013 11V0.534424H35.883V11H33.6013ZM48.498 11L46.2451 6.97647H45.1366L44.6543 6.8685L44.8631 5.42894V5.19861H46.3818C46.7177 5.19861 46.9864 5.14102 47.188 5.02586C47.3943 4.91069 47.5431 4.74994 47.6342 4.54361C47.7254 4.33247 47.771 4.08535 47.771 3.80223C47.771 3.45194 47.7086 3.18802 47.5838 3.01047C47.4591 2.83293 47.2935 2.71296 47.0872 2.65058C46.8857 2.5834 46.6601 2.54981 46.4106 2.54981L45.2662 2.54261L44.7623 1.72926L44.6471 0.534424C44.8343 0.534424 45.0094 0.534424 45.1726 0.534424C45.3405 0.534424 45.5421 0.534424 45.7772 0.534424C46.0123 0.534424 46.3218 0.534424 46.7057 0.534424C47.3775 0.534424 47.9677 0.64719 48.4764 0.872721C48.9898 1.09825 49.3905 1.43895 49.6784 1.89481C49.9663 2.35067 50.1103 2.9217 50.1103 3.60789C50.1103 4.14053 50.0095 4.63958 49.808 5.10503C49.6064 5.56569 49.2921 5.94238 48.8651 6.23509C48.438 6.523 47.8862 6.68135 47.2096 6.71015L47.4975 6.59498C47.6846 6.59498 47.8574 6.61178 48.0157 6.64537C48.1741 6.67896 48.3204 6.74134 48.4548 6.83251C48.5891 6.92368 48.7091 7.05324 48.8147 7.22119L51.1971 11H48.498ZM42.9916 11V0.534424H45.2734V11H42.9916ZM52.7674 11V0.534424H55.0779V11H52.7674ZM57.5548 11V0.534424H60.4771L63.493 6.75333L64.292 8.94147H64.3424L64.0401 6.25668V0.534424H66.2642V11H63.3203L60.3188 4.78113L59.563 2.78734H59.491L59.779 5.89679V11H57.5548ZM70.689 11V3.47113C70.689 3.18322 70.7418 2.97448 70.8474 2.84492C70.953 2.71536 71.1137 2.63379 71.3296 2.6002H68.105V0.534424H75.5476V2.6002H72.9779V11H70.689Z" fill="#070707"/>
</g>
<defs>
<filter id="filter0_d_69_332" x="0.0460205" y="0.534424" width="75.5016" height="10.4656" filterUnits="userSpaceOnUse" color-interpolation-filters="sRGB">
<feFlood flood-opacity="0" result="BackgroundImageFix"/>
<feColorMatrix in="SourceAlpha" type="matrix" values="0 0 0 0 0 0 0 0 0 0 0 0 0 0 0 0 0 0 127 0" result="hardAlpha"/>
<feOffset/>
<feComposite in2="hardAlpha" operator="out"/>
<feColorMatrix type="matrix" values="0 0 0 0 0 0 0 0 0 0 0 0 0 0 0 0 0 0 0.2 0"/>
<feBlend mode="normal" in2="BackgroundImageFix" result="effect1_dropShadow_69_332"/>
<feBlend mode="normal" in="SourceGraphic" in2="effect1_dropShadow_69_332" result="shape"/>
</filter>
</defs>
</svg>
