<svg width="56" height="56" viewBox="0 0 56 56" fill="none" xmlns="http://www.w3.org/2000/svg">
<path d="M39.9083 15.3471C40.3139 15.6898 40.6438 16.1056 40.8791 16.5706C41.1144 17.0356 41.2505 17.5406 41.2795 18.0569C41.3086 18.5731 41.23 19.0905 41.0484 19.5793C40.8668 20.0681 40.5856 20.5189 40.221 20.9057L22.6518 39.5698L14.9415 41.8697L16.484 34.4501L34.0556 15.6893C34.7482 14.9499 35.7067 14.4828 36.7408 14.3806C37.7749 14.2784 38.809 14.5486 39.6378 15.1376L39.9083 15.3471ZM37.2384 20.1469L39.2963 21.888Z" fill="#4A9BF6"/>
<path d="M37.2384 20.1469L39.2963 21.888M39.9083 15.3471C40.3139 15.6898 40.6438 16.1056 40.8791 16.5706C41.1144 17.0356 41.2505 17.5406 41.2795 18.0569C41.3086 18.5731 41.23 19.0905 41.0484 19.5793C40.8668 20.0681 40.5856 20.5189 40.221 20.9057L22.6518 39.5698L14.9415 41.8697L16.484 34.4501L34.0556 15.6893C34.7482 14.9499 35.7067 14.4828 36.7408 14.3806C37.7749 14.2784 38.809 14.5486 39.6378 15.1376L39.9083 15.3471Z" stroke="white" stroke-width="2.26027" stroke-linecap="round" stroke-linejoin="round"/>
</svg>
