<svg width="24" height="24" viewBox="0 0 24 24" fill="none" xmlns="http://www.w3.org/2000/svg">
<path d="M16.5742 2.00098C16.9384 1.98665 17.2352 2.31646 17.2353 2.6582V4.13086H19.3037L19.5898 4.14551C20.2528 4.21148 20.8764 4.50402 21.3516 4.97852C21.8944 5.5207 22.1991 6.25585 22.1992 7.02246V19.3076C22.1992 20.903 20.9006 22.199 19.3027 22.1992H4.89649C3.29979 22.199 2 20.903 2 19.3076V7.02246L2.01367 6.73731C2.08014 6.07543 2.3743 5.45294 2.84961 4.97852C3.39265 4.43669 4.12872 4.13183 4.89649 4.13086H6.96484V2.65625L6.98047 2.52832C7.00746 2.40349 7.0695 2.28789 7.16113 2.19629C7.28311 2.07454 7.44781 2.00499 7.62012 2.00098H7.62207L7.62305 2C7.98727 1.9856 8.28403 2.31642 8.28418 2.6582V4.13086H15.916V2.65625L15.9307 2.52832C15.9576 2.4034 16.0206 2.28794 16.1123 2.19629C16.2343 2.07451 16.3989 2.00496 16.5713 2.00098H16.5742ZM3.31836 19.3076C3.31836 20.1757 4.02637 20.8826 4.89649 20.8828H19.3037L19.459 20.875C19.8203 20.839 20.1601 20.6795 20.4189 20.4209C20.7146 20.1255 20.8809 19.7251 20.8808 19.3076V10.0088H3.31836V19.3076ZM4.89649 5.44727C4.02652 5.44744 3.3186 6.15459 3.31836 7.02246V8.69238H20.8808V7.02246C20.8806 6.15459 20.1727 5.44744 19.3027 5.44727H17.2353V6.00879C17.2353 6.33503 17.0015 6.58218 16.709 6.64941L16.5801 6.66699C16.2145 6.68318 15.916 6.35153 15.916 6.00879V5.44727H8.28418V6.00879C8.28418 6.33507 8.05034 6.58222 7.75781 6.64941L7.62891 6.66699C7.26339 6.68311 6.96484 6.35149 6.96484 6.00879V5.44727H4.89649Z" fill="#070707" stroke="#070707" stroke-width="0.2"/>
</svg>
