<svg width="24" height="24" viewBox="0 0 24 24" fill="none" xmlns="http://www.w3.org/2000/svg">
<path d="M10.5436 18.1911C9.05417 18.1898 7.59781 17.7433 6.35869 16.9079C5.11957 16.0726 4.15334 14.8861 3.58218 13.4982C3.01102 12.1104 2.86059 10.5838 3.1499 9.11125C3.43922 7.63873 4.1553 6.28653 5.20758 5.22563C6.25986 4.16473 7.60108 3.44279 9.06164 3.15109C10.5222 2.85939 12.0365 3.01104 13.413 3.58687C14.7896 4.16269 15.9665 5.13683 16.7951 6.38608C17.6236 7.63534 18.0665 9.10362 18.0678 10.6052C18.0687 11.6023 17.8747 12.5894 17.497 13.5102C17.1194 14.431 16.5654 15.2675 15.8667 15.9719C15.168 16.6763 14.3383 17.2349 13.425 17.6156C12.5116 17.9964 11.5325 18.1919 10.5436 18.1911ZM10.532 4.52896C9.34518 4.52794 8.18534 4.88175 7.19912 5.54565C6.2129 6.20954 5.4446 7.15371 4.99138 8.25875C4.53815 9.36379 4.42036 10.5801 4.65289 11.7538C4.88542 12.9275 5.45783 14.0059 6.29774 14.8527C7.13765 15.6995 8.20733 16.2766 9.37152 16.511C10.5357 16.7454 11.7421 16.6267 12.8382 16.1697C13.9342 15.7128 14.8707 14.9382 15.5292 13.9439C16.1877 12.9496 16.5387 11.7803 16.5377 10.5838C16.5363 8.97929 15.9028 7.43999 14.7765 6.3045C13.6502 5.16901 12.1234 4.53032 10.532 4.52896Z" fill="#070707"/>
<path d="M19.7765 20.669C19.6779 20.6694 19.5802 20.6499 19.4892 20.6117C19.3981 20.5736 19.3155 20.5174 19.2462 20.4467L15.1123 16.279C14.9797 16.1355 14.9074 15.9459 14.9107 15.7499C14.9139 15.554 14.9925 15.3672 15.1298 15.2288C15.2671 15.0903 15.4524 15.0111 15.6467 15.0078C15.8411 15.0045 16.0292 15.0774 16.1715 15.2111L20.3054 19.3788C20.446 19.5207 20.525 19.713 20.5252 19.9134C20.5254 20.1138 20.4467 20.3059 20.3063 20.4476C20.2371 20.5182 20.1546 20.5742 20.0636 20.6122C19.9726 20.6502 19.875 20.6695 19.7765 20.669Z" fill="#070707"/>
</svg>
