<svg width="24" height="24" viewBox="0 0 24 24" fill="none" xmlns="http://www.w3.org/2000/svg">
<g clip-path="url(#clip0_73_371)">
<path d="M13.781 10.2233L11.1131 12.8911M19.3727 4.02603C19.4571 3.99691 19.5479 3.99211 19.6349 4.0122C19.7219 4.03228 19.8015 4.07643 19.8645 4.1396C19.9276 4.20276 19.9716 4.2824 19.9916 4.36941C20.0115 4.45641 20.0066 4.54728 19.9774 4.63162L14.7094 19.6869C14.6778 19.7769 14.62 19.8553 14.5433 19.912C14.4667 19.9688 14.3748 20.0011 14.2795 20.005C14.1842 20.0088 14.09 19.9839 14.009 19.9335C13.928 19.8832 13.8641 19.8096 13.8254 19.7224L10.9629 13.2824C10.9147 13.1753 10.829 13.0896 10.7219 13.0414L4.28179 10.178C4.19491 10.1392 4.12165 10.0752 4.07149 9.99437C4.02132 9.91351 3.99656 9.81947 4.00039 9.7244C4.00421 9.62932 4.03646 9.53758 4.09297 9.46102C4.14948 9.38446 4.22764 9.32661 4.31736 9.29493L19.3727 4.02603Z" stroke="#4A9BF6" stroke-width="1.3339" stroke-linecap="round" stroke-linejoin="round"/>
</g>
<defs>
<clipPath id="clip0_73_371">
<rect width="18" height="18" fill="white" transform="translate(3 3)"/>
</clipPath>
</defs>
</svg>
